<svg width="216" height="107" viewBox="0 0 216 107" fill="none" xmlns="http://www.w3.org/2000/svg">
<path d="M46.5 34.5L58 0L68 34.5L62 37L58 40.5L54.5 45.5L53 52L49 48L46.5 43.5L46 39L46.5 34.5Z" fill="#606368"/>
<path d="M75.1268 39.4438L111.493 39.4342L81.9311 59.8387L77.6607 54.9383L73.0747 52.2515L67.2241 50.5138L60.5834 51.148L63.1119 46.0877L66.5894 42.2921L70.6999 40.3936L75.1268 39.4438Z" fill="#606368"/>
<path d="M79.4095 67.2342L92.1113 101.31L62.6721 80.729L65.7738 75.0168L66.6909 69.7815L66.2773 63.6922L63.3652 57.6906L68.9898 58.2938L73.7605 60.2279L76.9742 63.4172L79.4095 67.2342Z" fill="#606368"/>
<path d="M52.033 80.5172L22.0819 101.143L34.8649 67.5747L41.1609 69.1903L46.4619 68.8034L52.2666 66.9177L57.3772 62.6304L58.1633 68.2323L57.4507 73.3306L55.1411 77.2249L52.033 80.5172Z" fill="#606368"/>
<path d="M31.6919 59.2055L1.76931 38.5381L37.6894 38.5589L38.4164 45.0181L40.6617 49.8357L44.4868 54.5915L50.3104 57.8452L45.3534 60.5706L40.3346 61.7161L35.8738 60.9409L31.6919 59.2055Z" fill="#606368"/>
<path fill-rule="evenodd" clip-rule="evenodd" d="M144.5 39V86.5H159V71.5H168L173.5 68.5L177 66L178.5 63.5L179.2 60L181.5 63.5L188.5 67L196.5 69.5L198.5 70.5L200.5 71.5V74L198 75.5H191.5L181.5 72.5L177 82H178.5L183.5 85.5L189.5 86.5L198 87.5L208.5 85.5L213.5 82L216 75.5V68.5L213.5 63.5L206.5 59L198 56.5L193.5 54V50.5L196.5 49H202L212 52L216 43L209.5 40L202 38.5H193L187.5 40L182.5 44L179.5 47V52L178.5 47L177 44L173.5 41.5L168 39H144.5ZM101 51H112V86.5H127.5V51H141.5V39H109.5L101 51ZM159 49V61H163.5L166.5 58.5L168 56.5V54L166.5 51L163.5 49H159Z" fill="#606368"/>
</svg>
