<?xml version="1.0" standalone="no"?>
<!DOCTYPE svg PUBLIC "-//W3C//DTD SVG 20010904//EN"
 "http://www.w3.org/TR/2001/REC-SVG-20010904/DTD/svg10.dtd">
<svg version="1.0" xmlns="http://www.w3.org/2000/svg"
 width="167.000000pt" height="69.000000pt" viewBox="0 0 167.000000 69.000000"
 preserveAspectRatio="xMidYMid meet">

<g transform="translate(0.000000,69.000000) scale(0.100000,-0.100000)"
fill="#000000" stroke="none">
<path d="M990 663 c0 -9 -123 -161 -261 -324 -87 -103 -198 -215 -274 -277
l-28 -23 -109 16 c-176 26 -288 70 -288 114 0 20 30 50 80 80 41 25 33 28 -13
5 -87 -44 -102 -97 -39 -138 20 -14 62 -32 92 -40 75 -21 253 -46 320 -44 34
1 43 3 23 5 l-32 4 79 75 c42 41 117 122 165 179 49 58 94 105 102 105 10 0
-1 -27 -31 -82 -50 -93 -116 -242 -116 -264 0 -22 17 -16 24 9 4 14 9 18 14
10 4 -6 24 -14 44 -18 34 -7 41 -4 70 26 35 38 223 272 241 300 11 18 37 26
37 12 0 -11 -61 -115 -112 -191 -48 -71 -55 -93 -26 -75 21 12 182 184 203
217 l19 29 -28 22 -28 22 25 49 c32 64 41 94 28 94 -18 0 -61 -73 -55 -94 3
-12 -2 -30 -10 -41 -12 -16 -15 -17 -16 -5 0 9 5 21 12 28 6 6 9 14 6 18 -4 3
-14 -6 -23 -20 -15 -23 -24 -26 -79 -27 l-61 -1 53 -10 53 -10 -30 -40 c-56
-76 -193 -238 -222 -262 -27 -23 -30 -24 -60 -9 -17 8 -33 21 -36 29 -3 8 24
75 60 149 61 124 68 135 94 136 17 1 21 3 11 6 -10 2 -18 10 -18 17 0 17 94
153 136 196 19 20 34 39 34 43 0 9 -30 9 -30 0z m-147 -223 c-9 -16 -21 -30
-26 -30 -9 0 -1 17 21 43 23 26 25 21 5 -13z m302 -60 c10 -16 -28 -70 -96
-135 -34 -33 -56 -49 -48 -35 9 14 35 60 59 103 42 73 68 94 85 67z"/>
<path d="M160 280 c-8 -5 -10 -10 -5 -10 6 0 17 5 25 10 8 5 11 10 5 10 -5 0
-17 -5 -25 -10z"/>
<path d="M1634 76 c-7 -19 -36 -24 -184 -36 -115 -9 -115 -9 33 -4 159 6 177
9 177 29 0 21 -19 28 -26 11z"/>
<path d="M738 23 c105 -2 279 -2 385 0 105 1 19 2 -193 2 -212 0 -298 -1 -192
-2z"/>
</g>
</svg>
