<svg width="149" height="73" viewBox="0 0 149 73" fill="none" xmlns="http://www.w3.org/2000/svg">
<path d="M78 14.7288C75.4359 17.9819 70.8062 18.841 67.3362 16.106C63.8662 13.371 65.4363 9.48221 68.0004 6.2291C70.5645 2.97598 74.7892 1.48107 78.2592 4.21609C81.7292 6.95111 80.5641 11.4756 78 14.7288Z" fill="#469AC7"/>
<path d="M59.5 26.7288L76 24.7288L89.5 24.2288L102.264 24.7015C102.675 24.7167 103 25.054 103 25.4649C103 25.8868 102.658 26.2288 102.236 26.2288H89L81 26.7288L74.5 27.2288L63.5 28.7288L56 30.7288L50.9047 32.1184C50.6366 32.1915 50.3822 32.3073 50.151 32.4614L49.2901 33.0354C49.1088 33.1562 49 33.3596 49 33.5774C49 33.9371 49.2916 34.2288 49.6514 34.2288H50.5L77 33.2288H78.8486C79.2734 33.2288 79.6886 33.3545 80.042 33.5901L80.4226 33.8438C80.7833 34.0843 81 34.4892 81 34.9227C81 35.124 80.9531 35.3225 80.8631 35.5025L80.7647 35.6994C80.5912 36.0463 80.3302 36.3419 80.0075 36.5571L79.7481 36.73C79.2578 37.0569 78.691 37.2508 78.1031 37.2928L72 37.7288L65 38.7288L58.3923 40.0503C57.7983 40.1691 57.2141 40.3327 56.6448 40.5397L52 42.2288L44 45.7288L34.5 50.2288L25 55.7288L18 60.2288L11 64.7288L6.48391 68.3416C6.16506 68.5967 5.79493 68.78 5.39879 68.8791C4.51969 69.0988 3.58848 68.8858 2.89235 68.3057L1.99758 67.5601C1.34284 67.0145 0.834256 66.3144 0.517726 65.5231L0.0982779 64.4745C0.0333558 64.3121 0 64.1389 0 63.9641C0 63.5047 0.229608 63.0757 0.611872 62.8208L4.5 60.2288L13.5 55.2288L23.5 49.7288L35.5 43.7288L44 40.2288L48.9253 38.7512C48.9748 38.7363 49.0219 38.7142 49.0649 38.6855L49.2519 38.5608C49.6258 38.3116 49.4494 37.7288 49 37.7288H45.1376C44.3895 37.7288 43.6516 37.5546 42.9825 37.22L42.022 36.7397C41.3733 36.4154 40.8988 35.8238 40.7229 35.1203C40.5791 34.545 40.6458 33.9372 40.911 33.4068L41.1104 33.0079C41.3666 32.4955 41.7386 32.0498 42.1969 31.7061L42.7818 31.2674C43.2585 30.9099 43.7802 30.6167 44.3335 30.3954L45.0965 30.0902C45.6978 29.8496 46.3177 29.6582 46.95 29.5177L59.5 26.7288Z" fill="#B5E33A"/>
<path d="M35.1882 25.976L35.1565 26.1029C35.0537 26.5138 35.0537 26.9437 35.1565 27.3546L35.2568 27.7559C35.4083 28.3618 35.8588 28.8484 36.4513 29.0459C36.8084 29.1649 37.1935 29.1707 37.5539 29.0626L42 27.7288L53 24.7288L66 22.7288L75 22.2288L88 22.7288L98 23.2288L104.456 23.6899C104.75 23.7109 105 23.4781 105 23.1833C105 22.9245 104.805 22.7071 104.548 22.6786L96 21.7288L82 20.7288L75 20.2288H68L62 20.7288L56 21.2288L51 21.7288L45.5 22.2288L38.9624 23.1004C38.3275 23.1851 37.7167 23.3988 37.1675 23.7283L36.6024 24.0673C35.8965 24.4908 35.3878 25.1774 35.1882 25.976Z" fill="#469AC7"/>
<path d="M81.9261 55.7288H80.3793V51.3651H81.9389C82.3778 51.3651 82.7557 51.4525 83.0724 51.6272C83.3892 51.8005 83.6328 52.0498 83.8033 52.3751C83.9751 52.7004 84.0611 53.0896 84.0611 53.5427C84.0611 53.9972 83.9751 54.3879 83.8033 54.7146C83.6328 55.0413 83.3878 55.292 83.0682 55.4667C82.75 55.6414 82.3693 55.7288 81.9261 55.7288ZM81.3018 54.9383H81.8878C82.1605 54.9383 82.3899 54.89 82.576 54.7934C82.7635 54.6954 82.9041 54.5441 82.9979 54.3396C83.093 54.1336 83.1406 53.868 83.1406 53.5427C83.1406 53.2202 83.093 52.9567 82.9979 52.7522C82.9041 52.5477 82.7642 52.3971 82.5781 52.3005C82.392 52.2039 82.1626 52.1556 81.8899 52.1556H81.3018V54.9383ZM88.9445 55.7288V51.3651H91.8848V52.1258H89.8671V53.1655H91.7336V53.9262H89.8671V54.9681H91.8934V55.7288H88.9445ZM96.8183 55.7288V51.3651H98.5399C98.8709 51.3651 99.1528 51.4283 99.3858 51.5548C99.6187 51.6798 99.7963 51.8538 99.9185 52.0768C100.042 52.2984 100.104 52.554 100.104 52.8438C100.104 53.1336 100.041 53.3893 99.9163 53.6109C99.7913 53.8325 99.6102 54.005 99.373 54.1286C99.1372 54.2522 98.8517 54.314 98.5165 54.314H97.4192V53.5746H98.3673C98.5449 53.5746 98.6912 53.5441 98.8062 53.483C98.9227 53.4205 99.0094 53.3346 99.0662 53.2252C99.1244 53.1144 99.1536 52.9873 99.1536 52.8438C99.1536 52.6989 99.1244 52.5725 99.0662 52.4646C99.0094 52.3552 98.9227 52.2707 98.8062 52.211C98.6898 52.1499 98.542 52.1194 98.3631 52.1194H97.7409V55.7288H96.8183ZM108.913 53.5469C108.913 54.0228 108.823 54.4276 108.642 54.7614C108.463 55.0952 108.219 55.3502 107.909 55.5263C107.601 55.7011 107.255 55.7884 106.87 55.7884C106.482 55.7884 106.134 55.7004 105.826 55.5242C105.517 55.3481 105.274 55.0931 105.095 54.7593C104.916 54.4255 104.826 54.0214 104.826 53.5469C104.826 53.0711 104.916 52.6663 105.095 52.3325C105.274 51.9986 105.517 51.7444 105.826 51.5697C106.134 51.3935 106.482 51.3055 106.87 51.3055C107.255 51.3055 107.601 51.3935 107.909 51.5697C108.219 51.7444 108.463 51.9986 108.642 52.3325C108.823 52.6663 108.913 53.0711 108.913 53.5469ZM107.978 53.5469C107.978 53.2387 107.931 52.9788 107.839 52.7671C107.748 52.5555 107.62 52.395 107.454 52.2856C107.287 52.1762 107.093 52.1215 106.87 52.1215C106.647 52.1215 106.452 52.1762 106.286 52.2856C106.12 52.395 105.99 52.5555 105.898 52.7671C105.807 52.9788 105.762 53.2387 105.762 53.5469C105.762 53.8552 105.807 54.1151 105.898 54.3268C105.99 54.5384 106.12 54.6989 106.286 54.8083C106.452 54.9177 106.647 54.9724 106.87 54.9724C107.093 54.9724 107.287 54.9177 107.454 54.8083C107.62 54.6989 107.748 54.5384 107.839 54.3268C107.931 54.1151 107.978 53.8552 107.978 53.5469ZM113.796 55.7288V51.3651H115.518C115.848 51.3651 116.129 51.4241 116.362 51.542C116.596 51.6584 116.774 51.8239 116.897 52.0384C117.02 52.2515 117.082 52.5022 117.082 52.7905C117.082 53.0803 117.019 53.3296 116.894 53.5384C116.769 53.7458 116.588 53.9049 116.351 54.0157C116.115 54.1265 115.83 54.1819 115.495 54.1819H114.342V53.4404H115.345C115.522 53.4404 115.668 53.4163 115.784 53.368C115.901 53.3197 115.987 53.2472 116.044 53.1506C116.103 53.054 116.132 52.934 116.132 52.7905C116.132 52.6457 116.103 52.5235 116.044 52.4241C115.987 52.3246 115.9 52.2494 115.782 52.1982C115.666 52.1457 115.519 52.1194 115.341 52.1194H114.719V55.7288H113.796ZM116.153 53.743L117.237 55.7288H116.219L115.158 53.743H116.153ZM121.768 52.1258V51.3651H125.352V52.1258H124.016V55.7288H123.104V52.1258H121.768ZM131.064 51.3651V55.7288H130.142V51.3651H131.064ZM136.812 51.3651L137.866 54.6805H137.907L138.964 51.3651H139.986L138.482 55.7288H137.293L135.787 51.3651H136.812ZM148.476 53.5469C148.476 54.0228 148.385 54.4276 148.205 54.7614C148.026 55.0952 147.782 55.3502 147.472 55.5263C147.164 55.7011 146.817 55.7884 146.432 55.7884C146.044 55.7884 145.696 55.7004 145.388 55.5242C145.08 55.3481 144.836 55.0931 144.657 54.7593C144.478 54.4255 144.389 54.0214 144.389 53.5469C144.389 53.0711 144.478 52.6663 144.657 52.3325C144.836 51.9986 145.08 51.7444 145.388 51.5697C145.696 51.3935 146.044 51.3055 146.432 51.3055C146.817 51.3055 147.164 51.3935 147.472 51.5697C147.782 51.7444 148.026 51.9986 148.205 52.3325C148.385 52.6663 148.476 53.0711 148.476 53.5469ZM147.54 53.5469C147.54 53.2387 147.494 52.9788 147.402 52.7671C147.311 52.5555 147.182 52.395 147.016 52.2856C146.85 52.1762 146.655 52.1215 146.432 52.1215C146.209 52.1215 146.015 52.1762 145.848 52.2856C145.682 52.395 145.553 52.5555 145.461 52.7671C145.37 52.9788 145.324 53.2387 145.324 53.5469C145.324 53.8552 145.37 54.1151 145.461 54.3268C145.553 54.5384 145.682 54.6989 145.848 54.8083C146.015 54.9177 146.209 54.9724 146.432 54.9724C146.655 54.9724 146.85 54.9177 147.016 54.8083C147.182 54.6989 147.311 54.5384 147.402 54.3268C147.494 54.1151 147.54 53.8552 147.54 53.5469Z" fill="#585858"/>
<path d="M50.4084 62.4752C50.3686 62.0742 50.1979 61.7626 49.8963 61.5405C49.5947 61.3185 49.1854 61.2075 48.6683 61.2075C48.317 61.2075 48.0204 61.2572 47.7784 61.3566C47.5365 61.4527 47.3509 61.587 47.2216 61.7593C47.0956 61.9316 47.0327 62.1272 47.0327 62.3459C47.026 62.5282 47.0642 62.6873 47.147 62.8232C47.2332 62.9591 47.3509 63.0768 47.5 63.1762C47.6491 63.2723 47.8215 63.3568 48.017 63.4298C48.2126 63.4994 48.4214 63.559 48.6435 63.6087L49.5582 63.8275C50.0024 63.9269 50.41 64.0595 50.7812 64.2252C51.1525 64.3909 51.474 64.5948 51.7457 64.8367C52.0175 65.0787 52.228 65.3637 52.3771 65.6918C52.5296 66.02 52.6075 66.3961 52.6108 66.8204C52.6075 67.4435 52.4484 67.9837 52.1335 68.4411C51.822 68.8952 51.3712 69.2482 50.7812 69.5001C50.1946 69.7486 49.487 69.8729 48.6584 69.8729C47.8364 69.8729 47.1205 69.747 46.5107 69.4951C45.9041 69.2432 45.4302 68.8703 45.0888 68.3765C44.7507 67.8793 44.5734 67.2645 44.5568 66.532H46.6399C46.6631 66.8734 46.7609 67.1584 46.9332 67.3871C47.1089 67.6125 47.3426 67.7832 47.6342 67.8992C47.9292 68.0119 48.2623 68.0682 48.6335 68.0682C48.9981 68.0682 49.3146 68.0152 49.5831 67.9092C49.8549 67.8031 50.0653 67.6556 50.2145 67.4667C50.3636 67.2778 50.4382 67.0607 50.4382 66.8154C50.4382 66.5867 50.3703 66.3945 50.2344 66.2387C50.1018 66.0829 49.9063 65.9504 49.6477 65.841C49.3925 65.7316 49.0793 65.6322 48.7081 65.5427L47.5994 65.2643C46.741 65.0555 46.0632 64.729 45.5661 64.2849C45.0689 63.8407 44.822 63.2425 44.8253 62.4901C44.822 61.8736 44.986 61.3351 45.3175 60.8744C45.6522 60.4137 46.1113 60.054 46.6946 59.7955C47.2779 59.537 47.9408 59.4077 48.6832 59.4077C49.4389 59.4077 50.0985 59.537 50.6619 59.7955C51.2287 60.054 51.6695 60.4137 51.9844 60.8744C52.2992 61.3351 52.4616 61.8687 52.4716 62.4752H50.4084ZM56.2813 69.7288H53.9745L57.4894 59.5469H60.2636L63.7735 69.7288H61.4667L58.9163 61.8736H58.8367L56.2813 69.7288ZM56.1371 65.7266H61.586V67.407H56.1371V65.7266ZM74.2153 59.5469V69.7288H72.356L67.9263 63.3204H67.8517V69.7288H65.699V59.5469H67.5882L71.9831 65.9504H72.0726V59.5469H74.2153Z" fill="#585858"/>
<path d="M83.6399 69.7288H81.3331L84.848 59.5469H87.6222L91.1321 69.7288H88.8253L86.2749 61.8736H86.1953L83.6399 69.7288ZM83.4957 65.7266H88.9446V67.407H83.4957V65.7266ZM99.3305 62.8381C99.2609 62.5962 99.1631 62.3824 99.0372 62.1968C98.9112 62.0079 98.7571 61.8488 98.5748 61.7195C98.3958 61.587 98.1904 61.4859 97.9583 61.4163C97.7297 61.3467 97.4761 61.3119 97.1977 61.3119C96.6773 61.3119 96.2199 61.4411 95.8255 61.6996C95.4344 61.9582 95.1295 62.3343 94.9108 62.8282C94.692 63.3187 94.5826 63.9186 94.5826 64.6279C94.5826 65.3372 94.6904 65.9404 94.9058 66.4376C95.1212 66.9347 95.4261 67.3142 95.8206 67.5761C96.215 67.8346 96.6806 67.9638 97.2176 67.9638C97.7048 67.9638 98.1208 67.8777 98.4654 67.7053C98.8135 67.5297 99.0786 67.2827 99.2609 66.9646C99.4465 66.6464 99.5393 66.2702 99.5393 65.836L99.9768 65.9006H97.3518V64.2799H101.612V65.5626C101.612 66.4575 101.424 67.2264 101.046 67.8694C100.668 68.5091 100.148 69.0029 99.4846 69.3509C98.8217 69.6956 98.0627 69.868 97.2076 69.868C96.2531 69.868 95.4145 69.6575 94.692 69.2366C93.9695 68.8123 93.406 68.2108 93.0017 67.4319C92.6006 66.6497 92.4001 65.7217 92.4001 64.6478C92.4001 63.8225 92.5194 63.0867 92.7581 62.4404C93 61.7908 93.3381 61.2406 93.7723 60.7898C94.2065 60.3391 94.7119 59.996 95.2886 59.7607C95.8653 59.5254 96.4901 59.4077 97.1629 59.4077C97.7396 59.4077 98.2765 59.4923 98.7737 59.6613C99.2708 59.827 99.7117 60.0623 100.096 60.3673C100.484 60.6722 100.8 61.0351 101.046 61.456C101.291 61.8736 101.448 62.3343 101.518 62.8381H99.3305ZM110.219 59.5469H112.371V66.1592C112.371 66.9016 112.194 67.5512 111.839 68.108C111.488 68.6648 110.996 69.099 110.363 69.4106C109.73 69.7188 108.992 69.8729 108.15 69.8729C107.305 69.8729 106.566 69.7188 105.933 69.4106C105.3 69.099 104.808 68.6648 104.456 68.108C104.105 67.5512 103.929 66.9016 103.929 66.1592V59.5469H106.082V65.9752C106.082 66.363 106.167 66.7077 106.336 67.0093C106.508 67.3109 106.75 67.5479 107.062 67.7202C107.373 67.8926 107.736 67.9788 108.15 67.9788C108.568 67.9788 108.931 67.8926 109.239 67.7202C109.551 67.5479 109.791 67.3109 109.96 67.0093C110.132 66.7077 110.219 66.363 110.219 65.9752V59.5469ZM120.366 62.4752C120.326 62.0742 120.155 61.7626 119.854 61.5405C119.552 61.3185 119.143 61.2075 118.626 61.2075C118.274 61.2075 117.978 61.2572 117.736 61.3566C117.494 61.4527 117.308 61.587 117.179 61.7593C117.053 61.9316 116.99 62.1272 116.99 62.3459C116.983 62.5282 117.022 62.6873 117.104 62.8232C117.191 62.9591 117.308 63.0768 117.457 63.1762C117.607 63.2723 117.779 63.3568 117.974 63.4298C118.17 63.4994 118.379 63.559 118.601 63.6087L119.516 63.8275C119.96 63.9269 120.367 64.0595 120.739 64.2252C121.11 64.3909 121.431 64.5948 121.703 64.8367C121.975 65.0787 122.185 65.3637 122.335 65.6918C122.487 66.02 122.565 66.3961 122.568 66.8204C122.565 67.4435 122.406 67.9837 122.091 68.4411C121.779 68.8952 121.329 69.2482 120.739 69.5001C120.152 69.7486 119.444 69.8729 118.616 69.8729C117.794 69.8729 117.078 69.747 116.468 69.4951C115.862 69.2432 115.388 68.8703 115.046 68.3765C114.708 67.8793 114.531 67.2645 114.514 66.532H116.597C116.621 66.8734 116.718 67.1584 116.891 67.3871C117.066 67.6125 117.3 67.7832 117.592 67.8992C117.887 68.0119 118.22 68.0682 118.591 68.0682C118.956 68.0682 119.272 68.0152 119.541 67.9092C119.812 67.8031 120.023 67.6556 120.172 67.4667C120.321 67.2778 120.396 67.0607 120.396 66.8154C120.396 66.5867 120.328 66.3945 120.192 66.2387C120.059 66.0829 119.864 65.9504 119.605 65.841C119.35 65.7316 119.037 65.6322 118.666 65.5427L117.557 65.2643C116.698 65.0555 116.021 64.729 115.523 64.2849C115.026 63.8407 114.779 63.2425 114.783 62.4901C114.779 61.8736 114.943 61.3351 115.275 60.8744C115.61 60.4137 116.069 60.054 116.652 59.7955C117.235 59.537 117.898 59.4077 118.641 59.4077C119.396 59.4077 120.056 59.537 120.619 59.7955C121.186 60.054 121.627 60.4137 121.942 60.8744C122.257 61.3351 122.419 61.8687 122.429 62.4752H120.366ZM124.328 61.3218V59.5469H132.691V61.3218H129.573V69.7288H127.446V61.3218H124.328ZM136.92 59.5469V69.7288H134.768V59.5469H136.92ZM147.908 59.5469V69.7288H146.049L141.619 63.3204H141.544V69.7288H139.392V59.5469H141.281L145.676 65.9504H145.765V59.5469H147.908Z" fill="#585858"/>
</svg>
