<svg xmlns="http://www.w3.org/2000/svg" xmlns:xlink="http://www.w3.org/1999/xlink" width="500" zoomAndPan="magnify" viewBox="0 0 375 374.999991" height="500" preserveAspectRatio="xMidYMid meet" version="1.0"><defs><g/><clipPath id="deaba790cd"><path d="M 6.75 7.296875 L 368.25 7.296875 L 368.25 368.796875 L 6.75 368.796875 Z M 6.75 7.296875 " clip-rule="nonzero"/></clipPath><clipPath id="745f1b0a0f"><path d="M 7.296875 7.296875 L 368.796875 7.296875 L 368.796875 368.796875 L 7.296875 368.796875 Z M 7.296875 7.296875 " clip-rule="nonzero"/></clipPath><clipPath id="3acbd8400b"><path d="M 3.796875 3.796875 L 371.296875 3.796875 L 371.296875 371.296875 L 3.796875 371.296875 Z M 3.796875 3.796875 " clip-rule="nonzero"/></clipPath></defs><g clip-path="url(#deaba790cd)"><path fill="#ffffff" d="M 66.53125 368.996094 L 308.667969 368.996094 C 341.628906 368.996094 368.449219 342.175781 368.449219 309.214844 L 368.449219 67.074219 C 368.449219 34.113281 341.632812 7.296875 308.667969 7.296875 L 66.53125 7.296875 C 33.566406 7.296875 6.75 34.113281 6.75 67.074219 L 6.75 309.210938 C 6.75 342.175781 33.566406 368.996094 66.53125 368.996094 Z M 66.53125 368.996094 " fill-opacity="1" fill-rule="nonzero"/></g><g clip-path="url(#745f1b0a0f)"><path fill="#ffffff" d="M 67.074219 368.996094 L 309.210938 368.996094 C 342.175781 368.996094 368.992188 342.175781 368.992188 309.214844 L 368.992188 67.074219 C 368.996094 34.113281 342.175781 7.296875 309.214844 7.296875 L 67.074219 7.296875 C 34.113281 7.296875 7.296875 34.113281 7.296875 67.074219 L 7.296875 309.210938 C 7.296875 342.175781 34.113281 368.996094 67.074219 368.996094 Z M 67.074219 368.996094 " fill-opacity="1" fill-rule="nonzero"/></g><g clip-path="url(#3acbd8400b)"><path fill="#000000" d="M 321.679688 3.796875 L 53.519531 3.796875 C 26.277344 3.796875 3.796875 26.277344 3.796875 53.519531 L 3.796875 321.679688 C 3.796875 348.921875 26.277344 371.402344 53.519531 371.402344 L 321.679688 371.402344 C 348.921875 371.402344 371.402344 348.921875 371.402344 321.679688 L 371.402344 53.519531 C 371.402344 26.277344 348.921875 3.796875 321.679688 3.796875 Z M 360.417969 57.253906 L 360.417969 321.679688 C 360.417969 342.84375 342.84375 360.417969 321.679688 360.417969 L 53.519531 360.417969 C 32.355469 360.417969 14.78125 342.84375 14.78125 321.679688 L 14.78125 53.519531 C 14.78125 32.355469 32.355469 14.78125 53.519531 14.78125 L 321.679688 14.78125 C 342.84375 14.78125 360.417969 32.355469 360.417969 53.519531 Z M 360.417969 57.253906 " fill-opacity="1" fill-rule="nonzero"/></g><g fill="#000000" fill-opacity="1"><g transform="translate(90.902034, 207.606486)"><g><path d="M 78.484375 -106.238281 L 28.796875 -56.105469 L 28.796875 -106.238281 L 8.65625 -106.238281 L 8.65625 0 L 28.796875 0 L 28.796875 -33.273438 L 45.511719 -49.539062 L 79.53125 0 L 103.554688 0 L 59.835938 -62.96875 L 103.554688 -106.238281 Z M 78.484375 -106.238281 "/></g></g></g><g fill="#000000" fill-opacity="1"><g transform="translate(195.340561, 207.606486)"><g><path d="M 63.117188 -66.398438 C 58.042969 -74.160156 49.984375 -78.785156 38.796875 -78.785156 C 17.757812 -78.785156 4.179688 -63.117188 4.179688 -39.542969 C 4.179688 -16.113281 18.054688 -0.296875 38.945312 -0.296875 C 49.6875 -0.296875 57.445312 -4.625 62.519531 -11.789062 L 62.519531 -2.089844 C 62.519531 9.996094 55.953125 16.5625 43.570312 16.5625 C 33.273438 16.5625 27.304688 12.382812 26.410156 4.179688 L 7.910156 4.179688 C 9.101562 20.144531 21.039062 31.035156 43.273438 31.035156 C 68.339844 31.035156 81.320312 17.757812 81.320312 -2.535156 L 81.320312 -76.992188 L 63.117188 -76.992188 Z M 43.121094 -15.816406 C 31.035156 -15.816406 23.425781 -24.472656 23.425781 -39.390625 C 23.425781 -54.3125 31.035156 -63.265625 43.121094 -63.265625 C 55.359375 -63.265625 62.96875 -54.910156 62.96875 -39.542969 C 62.96875 -24.320312 55.359375 -15.816406 43.121094 -15.816406 Z M 43.121094 -15.816406 "/></g></g></g><g fill="#000000" fill-opacity="1"><g transform="translate(75.243821, 303.5946)"><g><path d="M 20.414062 0 L 11.824219 -13.5 L 19.839844 -21.109375 L 15.503906 -21.109375 L 5.726562 -11.660156 L 5.726562 -29.128906 L 2.453125 -29.128906 L 2.453125 0 L 5.726562 0 L 5.726562 -7.8125 L 9.492188 -11.332031 L 16.609375 0 Z M 20.414062 0 "/></g></g></g><g fill="#000000" fill-opacity="1"><g transform="translate(95.845887, 303.5946)"><g><path d="M 25.121094 -11.578125 C 24.34375 -9.042969 23.566406 -6.503906 22.867188 -3.96875 C 22.132812 -6.503906 21.355469 -9.042969 20.578125 -11.578125 L 17.632812 -21.109375 L 14.195312 -21.109375 L 11.25 -11.578125 C 10.433594 -9 9.695312 -6.464844 9 -3.886719 C 8.265625 -6.464844 7.527344 -9 6.710938 -11.578125 L 3.722656 -21.109375 L 0.203125 -21.109375 L 7.242188 0 L 10.675781 0 L 13.746094 -9.777344 C 14.480469 -12.109375 15.21875 -14.5625 15.914062 -16.9375 C 16.570312 -14.5625 17.304688 -12.109375 18.042969 -9.777344 L 21.152344 0 L 24.585938 0 L 31.625 -21.109375 L 28.105469 -21.109375 Z M 25.121094 -11.578125 "/></g></g></g><g fill="#000000" fill-opacity="1"><g transform="translate(127.648289, 303.5946)"><g><path d="M 19.71875 -2.660156 C 18.941406 -2.660156 18.574219 -3.027344 18.574219 -3.683594 L 18.574219 -15.464844 C 18.574219 -19.023438 16.488281 -21.601562 10.636719 -21.601562 C 4.460938 -21.601562 2.289062 -18.695312 2.046875 -14.605469 L 5.320312 -14.605469 C 5.523438 -17.753906 7.035156 -18.777344 10.636719 -18.777344 C 14.238281 -18.777344 15.382812 -17.671875 15.382812 -15.464844 C 15.382812 -13.582031 14.195312 -12.804688 12.070312 -12.558594 L 9.042969 -12.230469 C 3.230469 -11.617188 1.226562 -9 1.226562 -5.6875 C 1.226562 -1.71875 4.089844 0.492188 8.671875 0.492188 C 11.699219 0.492188 14.074219 -0.65625 15.546875 -2.90625 C 15.710938 -0.898438 16.773438 0.121094 19.105469 0.121094 C 19.71875 0.121094 20.375 0.0820312 20.90625 0 L 20.90625 -2.660156 Z M 8.835938 -2.289062 C 5.933594 -2.289062 4.621094 -3.683594 4.621094 -5.769531 C 4.621094 -7.8125 5.6875 -9.125 9.53125 -9.574219 L 12.601562 -9.941406 C 13.828125 -10.0625 14.726562 -10.351562 15.382812 -10.839844 L 15.382812 -8.347656 C 15.382812 -4.171875 11.988281 -2.289062 8.835938 -2.289062 Z M 8.835938 -2.289062 "/></g></g></g><g fill="#000000" fill-opacity="1"><g transform="translate(148.945275, 303.5946)"><g><path d="M 12.355469 -21.4375 C 8.917969 -21.4375 6.75 -19.597656 5.5625 -17.386719 L 5.5625 -21.109375 L 2.453125 -21.109375 L 2.453125 0 L 5.726562 0 L 5.726562 -12.027344 C 5.726562 -16.117188 8.425781 -18.246094 12.640625 -18.246094 L 13.460938 -18.246094 L 13.460938 -21.394531 C 13.007812 -21.4375 12.683594 -21.4375 12.355469 -21.4375 Z M 12.355469 -21.4375 "/></g></g></g><g fill="#000000" fill-opacity="1"><g transform="translate(163.415765, 303.5946)"><g><path d="M 20.414062 0 L 11.824219 -13.5 L 19.839844 -21.109375 L 15.503906 -21.109375 L 5.726562 -11.660156 L 5.726562 -29.128906 L 2.453125 -29.128906 L 2.453125 0 L 5.726562 0 L 5.726562 -7.8125 L 9.492188 -11.332031 L 16.609375 0 Z M 20.414062 0 "/></g></g></g><g fill="#000000" fill-opacity="1"><g transform="translate(184.01783, 303.5946)"><g/></g></g><g fill="#000000" fill-opacity="1"><g transform="translate(191.7845, 303.5946)"><g><path d="M 18.492188 -18.042969 C 16.894531 -20.292969 14.402344 -21.601562 11.25 -21.601562 C 5.320312 -21.601562 1.433594 -17.304688 1.433594 -10.554688 C 1.433594 -3.804688 5.320312 0.492188 11.25 0.492188 C 14.277344 0.492188 16.734375 -0.738281 18.328125 -2.863281 L 18.328125 -0.816406 C 18.328125 3.558594 15.996094 5.726562 11.78125 5.726562 C 8.46875 5.726562 6.464844 4.378906 6.054688 1.71875 L 2.78125 1.71875 C 3.230469 5.808594 6.382812 8.507812 11.78125 8.507812 C 18.449219 8.507812 21.601562 4.664062 21.601562 -0.816406 L 21.601562 -21.109375 L 18.492188 -21.109375 Z M 11.660156 -2.453125 C 7.570312 -2.453125 4.867188 -5.605469 4.867188 -10.554688 C 4.867188 -15.503906 7.570312 -18.65625 11.660156 -18.65625 C 15.75 -18.65625 18.449219 -15.667969 18.449219 -10.554688 C 18.449219 -5.441406 15.75 -2.453125 11.660156 -2.453125 Z M 11.660156 -2.453125 "/></g></g></g><g fill="#000000" fill-opacity="1"><g transform="translate(215.820266, 303.5946)"><g><path d="M 12.355469 -21.4375 C 8.917969 -21.4375 6.75 -19.597656 5.5625 -17.386719 L 5.5625 -21.109375 L 2.453125 -21.109375 L 2.453125 0 L 5.726562 0 L 5.726562 -12.027344 C 5.726562 -16.117188 8.425781 -18.246094 12.640625 -18.246094 L 13.460938 -18.246094 L 13.460938 -21.394531 C 13.007812 -21.4375 12.683594 -21.4375 12.355469 -21.4375 Z M 12.355469 -21.4375 "/></g></g></g><g fill="#000000" fill-opacity="1"><g transform="translate(230.290756, 303.5946)"><g><path d="M 11.660156 0.492188 C 17.589844 0.492188 21.886719 -3.804688 21.886719 -10.554688 C 21.886719 -17.304688 17.589844 -21.601562 11.660156 -21.601562 C 5.726562 -21.601562 1.433594 -17.304688 1.433594 -10.554688 C 1.433594 -3.804688 5.726562 0.492188 11.660156 0.492188 Z M 11.660156 -2.453125 C 7.570312 -2.453125 4.867188 -5.441406 4.867188 -10.554688 C 4.867188 -15.667969 7.570312 -18.65625 11.660156 -18.65625 C 15.75 -18.65625 18.449219 -15.667969 18.449219 -10.554688 C 18.449219 -5.441406 15.75 -2.453125 11.660156 -2.453125 Z M 11.660156 -2.453125 "/></g></g></g><g fill="#000000" fill-opacity="1"><g transform="translate(253.590731, 303.5946)"><g><path d="M 16.363281 -9.164062 C 16.363281 -4.5 13.296875 -2.453125 10.554688 -2.453125 C 7.527344 -2.453125 5.726562 -3.886719 5.726562 -7.160156 L 5.726562 -21.109375 L 2.453125 -21.109375 L 2.453125 -6.832031 C 2.453125 -2.167969 5.195312 0.492188 9.898438 0.492188 C 12.847656 0.492188 15.136719 -1.023438 16.527344 -3.148438 L 16.527344 0 L 19.636719 0 L 19.636719 -21.109375 L 16.363281 -21.109375 Z M 16.363281 -9.164062 "/></g></g></g><g fill="#000000" fill-opacity="1"><g transform="translate(275.664378, 303.5946)"><g><path d="M 12.804688 -21.601562 C 9.65625 -21.601562 7.160156 -20.25 5.5625 -17.835938 L 5.5625 -21.109375 L 2.453125 -21.109375 L 2.453125 8.019531 L 5.726562 8.019531 L 5.726562 -3.027344 C 7.324219 -0.777344 9.738281 0.492188 12.804688 0.492188 C 18.738281 0.492188 22.625 -3.804688 22.625 -10.554688 C 22.625 -17.304688 18.738281 -21.601562 12.804688 -21.601562 Z M 12.394531 -2.453125 C 8.304688 -2.453125 5.605469 -5.441406 5.605469 -10.554688 C 5.605469 -15.667969 8.304688 -18.65625 12.394531 -18.65625 C 16.488281 -18.65625 19.1875 -15.832031 19.1875 -10.71875 C 19.1875 -5.605469 16.488281 -2.453125 12.394531 -2.453125 Z M 12.394531 -2.453125 "/></g></g></g></svg>