<svg width="1847" height="789" viewBox="0 0 1847 789" fill="none" xmlns="http://www.w3.org/2000/svg">
<g clip-path="url(#clip0_932_61)">
<path d="M0.994675 480.403C20.0051 478.56 32.6457 475.195 38.9113 470.32C45.1718 465.445 48.3072 456.752 48.3072 444.237V91.4866C48.3072 83.1428 46.6822 77.2314 43.4322 73.7574C40.1926 70.273 34.6301 68.5282 26.7447 68.5282H0.994675V54.6116L87.9738 0.361572H109.536V336.382L203.453 241.778C211.338 234.82 215.286 228.091 215.286 221.591C215.286 209.997 200.672 203.273 171.453 201.424V184.028H334.953V201.424C315.005 203.273 298.651 207.33 285.891 213.591C273.141 219.856 258.646 230.872 242.411 246.632L193.724 295.341L309.203 439.362C321.729 454.195 332.047 464.289 340.161 469.632C348.286 474.966 358.146 478.56 369.745 480.403V497.799H197.203V480.403C225.495 478.56 239.641 470.674 239.641 456.757C239.641 451.19 236.854 444.924 231.286 437.966L149.891 338.487L109.536 378.82V444.237C109.536 456.752 112.667 465.445 118.932 470.32C125.193 475.195 137.599 478.56 156.141 480.403V497.799H0.994675V480.403Z" fill="#55996F"/>
<path d="M0.994675 480.403C20.0051 478.56 32.6457 475.195 38.9113 470.32C45.1718 465.445 48.3072 456.752 48.3072 444.237V91.4866C48.3072 83.1428 46.6822 77.2314 43.4322 73.7574C40.1926 70.273 34.6301 68.5282 26.7447 68.5282H0.994675V54.6116L87.9738 0.361572H109.536V336.382L203.453 241.778C211.338 234.82 215.286 228.091 215.286 221.591C215.286 209.997 200.672 203.273 171.453 201.424V184.028H334.953V201.424C315.005 203.273 298.651 207.33 285.891 213.591C273.141 219.856 258.646 230.872 242.411 246.632L193.724 295.341L309.203 439.362C321.729 454.195 332.047 464.289 340.161 469.632C348.286 474.966 358.146 478.56 369.745 480.403V497.799H197.203V480.403C225.495 478.56 239.641 470.674 239.641 456.757C239.641 451.19 236.854 444.924 231.286 437.966L149.891 338.487L109.536 378.82V444.237C109.536 456.752 112.667 465.445 118.932 470.32C125.193 475.195 137.599 478.56 156.141 480.403V497.799H0.994675V480.403Z" fill="black"/>
<path d="M627.407 283.507L544.615 497.799H501.469L415.198 261.945C409.167 246.185 404.183 234.476 400.24 226.82C396.292 219.169 391.427 213.257 385.636 209.091C379.844 204.914 371.604 202.356 360.927 201.424V184.028H511.219V201.424C495.912 202.356 485.125 204.674 478.865 208.382C472.599 212.091 469.469 217.424 469.469 224.382C469.469 229.023 472.016 238.528 477.115 252.903L539.74 424.757L611.407 240.382C605.834 227.398 600.146 218.007 594.344 212.216C588.552 206.414 579.625 202.815 567.573 201.424V184.028H715.761V201.424C700.453 202.356 689.667 204.674 683.407 208.382C677.141 212.091 674.011 217.424 674.011 224.382C674.011 230.414 676.328 239.919 680.969 252.903L743.594 424.049L808.99 256.382C812.698 245.247 814.552 236.664 814.552 230.632C814.552 221.83 811.188 215.106 804.469 210.466C797.745 205.83 787.188 202.815 772.802 201.424V184.028H895.261V201.424C882.271 203.273 871.834 208.487 863.948 217.07C856.058 225.653 847.938 240.612 839.594 261.945L748.448 497.799H706.011L627.407 283.507Z" fill="#55996F"/>
<path d="M627.407 283.507L544.615 497.799H501.469L415.198 261.945C409.167 246.185 404.183 234.476 400.24 226.82C396.292 219.169 391.427 213.257 385.636 209.091C379.844 204.914 371.604 202.356 360.927 201.424V184.028H511.219V201.424C495.912 202.356 485.125 204.674 478.865 208.382C472.599 212.091 469.469 217.424 469.469 224.382C469.469 229.023 472.016 238.528 477.115 252.903L539.74 424.757L611.407 240.382C605.834 227.398 600.146 218.007 594.344 212.216C588.552 206.414 579.625 202.815 567.573 201.424V184.028H715.761V201.424C700.453 202.356 689.667 204.674 683.407 208.382C677.141 212.091 674.011 217.424 674.011 224.382C674.011 230.414 676.328 239.919 680.969 252.903L743.594 424.049L808.99 256.382C812.698 245.247 814.552 236.664 814.552 230.632C814.552 221.83 811.188 215.106 804.469 210.466C797.745 205.83 787.188 202.815 772.802 201.424V184.028H895.261V201.424C882.271 203.273 871.834 208.487 863.948 217.07C856.058 225.653 847.938 240.612 839.594 261.945L748.448 497.799H706.011L627.407 283.507Z" fill="black"/>
<path d="M1109.5 462.32C1066.81 492.002 1028.31 506.841 993.997 506.841C964.773 506.841 941.814 500.466 925.122 487.716C908.424 474.955 900.08 456.518 900.08 432.403C900.08 408.752 908.773 389.153 926.163 373.612C943.549 358.07 966.976 345.778 996.434 336.737C1025.89 327.695 1063.11 319.466 1108.1 312.049V270.299C1108.1 244.33 1104.5 226.127 1097.31 215.695C1090.13 205.252 1077.02 200.028 1058 200.028C1018.12 200.028 994.002 216.961 985.642 250.82C979.611 273.086 968.023 284.216 950.872 284.216C932.773 284.216 923.726 273.778 923.726 252.903C923.726 239.461 929.403 226.591 940.767 214.299C952.142 202.007 968.257 192.153 989.122 184.737C1010 177.31 1034.11 173.591 1061.48 173.591C1133.84 173.591 1170.02 206.294 1170.02 271.695V435.174C1170.02 448.174 1171.87 457.69 1175.58 463.716C1179.29 469.747 1184.86 472.757 1192.29 472.757C1199.7 472.757 1208.28 470.205 1218.02 465.091V490.153C1202.71 500.346 1184.63 505.445 1163.77 505.445C1149.38 505.445 1137.42 501.851 1127.91 494.674C1118.41 487.481 1112.27 476.695 1109.5 462.32ZM1108.1 338.487C1061.25 345.435 1026 355.169 1002.35 367.695C978.694 380.226 966.872 399.007 966.872 424.049C966.872 439.83 971.392 451.664 980.434 459.549C989.476 467.424 1001.42 471.362 1016.27 471.362C1042.69 471.362 1073.31 459.299 1108.1 435.174V338.487Z" fill="#55996F"/>
<path d="M1109.5 462.32C1066.81 492.002 1028.31 506.841 993.997 506.841C964.773 506.841 941.814 500.466 925.122 487.716C908.424 474.955 900.08 456.518 900.08 432.403C900.08 408.752 908.773 389.153 926.163 373.612C943.549 358.07 966.976 345.778 996.434 336.737C1025.89 327.695 1063.11 319.466 1108.1 312.049V270.299C1108.1 244.33 1104.5 226.127 1097.31 215.695C1090.13 205.252 1077.02 200.028 1058 200.028C1018.12 200.028 994.002 216.961 985.642 250.82C979.611 273.086 968.023 284.216 950.872 284.216C932.773 284.216 923.726 273.778 923.726 252.903C923.726 239.461 929.403 226.591 940.767 214.299C952.142 202.007 968.257 192.153 989.122 184.737C1010 177.31 1034.11 173.591 1061.48 173.591C1133.84 173.591 1170.02 206.294 1170.02 271.695V435.174C1170.02 448.174 1171.87 457.69 1175.58 463.716C1179.29 469.747 1184.86 472.757 1192.29 472.757C1199.7 472.757 1208.28 470.205 1218.02 465.091V490.153C1202.71 500.346 1184.63 505.445 1163.77 505.445C1149.38 505.445 1137.42 501.851 1127.91 494.674C1118.41 487.481 1112.27 476.695 1109.5 462.32ZM1108.1 338.487C1061.25 345.435 1026 355.169 1002.35 367.695C978.694 380.226 966.872 399.007 966.872 424.049C966.872 439.83 971.392 451.664 980.434 459.549C989.476 467.424 1001.42 471.362 1016.27 471.362C1042.69 471.362 1073.31 459.299 1108.1 435.174V338.487Z" fill="black"/>
<path d="M1459.44 251.507C1452.49 251.507 1446.81 250.122 1442.39 247.341C1437.99 244.549 1432.77 240.143 1426.75 234.112C1422.57 229.476 1418.62 225.882 1414.92 223.341C1411.21 220.789 1407.03 219.507 1402.39 219.507C1393.59 219.507 1384.08 222.523 1373.87 228.549C1363.67 234.58 1354.85 243.393 1347.44 254.987V444.237C1347.44 456.752 1350.57 465.445 1356.83 470.32C1363.09 475.195 1375.5 478.56 1394.04 480.403V497.799H1238.89V480.403C1257.9 478.56 1270.55 475.195 1276.81 470.32C1283.07 465.445 1286.21 456.752 1286.21 444.237V264.737C1286.21 256.393 1284.58 250.481 1281.33 247.007C1278.09 243.523 1272.53 241.778 1264.64 241.778H1238.89V227.862L1325.87 173.591H1347.44V219.507C1359.49 205.132 1373.86 193.893 1390.56 185.778C1407.27 177.653 1423.73 173.591 1439.96 173.591C1458.05 173.591 1471.5 177.653 1480.31 185.778C1489.13 193.893 1493.54 203.976 1493.54 216.028C1493.54 227.169 1490.4 235.872 1484.14 242.132C1477.88 248.382 1469.64 251.507 1459.44 251.507Z" fill="#55996F"/>
<path d="M1459.44 251.507C1452.49 251.507 1446.81 250.122 1442.39 247.341C1437.99 244.549 1432.77 240.143 1426.75 234.112C1422.57 229.476 1418.62 225.882 1414.92 223.341C1411.21 220.789 1407.03 219.507 1402.39 219.507C1393.59 219.507 1384.08 222.523 1373.87 228.549C1363.67 234.58 1354.85 243.393 1347.44 254.987V444.237C1347.44 456.752 1350.57 465.445 1356.83 470.32C1363.09 475.195 1375.5 478.56 1394.04 480.403V497.799H1238.89V480.403C1257.9 478.56 1270.55 475.195 1276.81 470.32C1283.07 465.445 1286.21 456.752 1286.21 444.237V264.737C1286.21 256.393 1284.58 250.481 1281.33 247.007C1278.09 243.523 1272.53 241.778 1264.64 241.778H1238.89V227.862L1325.87 173.591H1347.44V219.507C1359.49 205.132 1373.86 193.893 1390.56 185.778C1407.27 177.653 1423.73 173.591 1439.96 173.591C1458.05 173.591 1471.5 177.653 1480.31 185.778C1489.13 193.893 1493.54 203.976 1493.54 216.028C1493.54 227.169 1490.4 235.872 1484.14 242.132C1477.88 248.382 1469.64 251.507 1459.44 251.507Z" fill="black"/>
<path d="M1477.32 480.403C1496.33 478.56 1508.97 475.195 1515.24 470.32C1521.5 465.445 1524.63 456.752 1524.63 444.237V91.4866C1524.63 83.1428 1523.01 77.2314 1519.76 73.7574C1516.52 70.273 1510.95 68.5282 1503.07 68.5282H1477.32V54.6116L1564.3 0.361572H1585.86V336.382L1679.78 241.778C1687.66 234.82 1691.61 228.091 1691.61 221.591C1691.61 209.997 1677 203.273 1647.78 201.424V184.028H1811.28V201.424C1791.33 203.273 1774.98 207.33 1762.22 213.591C1749.47 219.856 1734.97 230.872 1718.74 246.632L1670.05 295.341L1785.53 439.362C1798.05 454.195 1808.37 464.289 1816.49 469.632C1824.61 474.966 1834.47 478.56 1846.07 480.403V497.799H1673.53V480.403C1701.82 478.56 1715.97 470.674 1715.97 456.757C1715.97 451.19 1713.18 444.924 1707.61 437.966L1626.22 338.487L1585.86 378.82V444.237C1585.86 456.752 1588.99 465.445 1595.26 470.32C1601.52 475.195 1613.92 478.56 1632.47 480.403V497.799H1477.32V480.403Z" fill="#55996F"/>
<path d="M1477.32 480.403C1496.33 478.56 1508.97 475.195 1515.24 470.32C1521.5 465.445 1524.63 456.752 1524.63 444.237V91.4866C1524.63 83.1428 1523.01 77.2314 1519.76 73.7574C1516.52 70.273 1510.95 68.5282 1503.07 68.5282H1477.32V54.6116L1564.3 0.361572H1585.86V336.382L1679.78 241.778C1687.66 234.82 1691.61 228.091 1691.61 221.591C1691.61 209.997 1677 203.273 1647.78 201.424V184.028H1811.28V201.424C1791.33 203.273 1774.98 207.33 1762.22 213.591C1749.47 219.856 1734.97 230.872 1718.74 246.632L1670.05 295.341L1785.53 439.362C1798.05 454.195 1808.37 464.289 1816.49 469.632C1824.61 474.966 1834.47 478.56 1846.07 480.403V497.799H1673.53V480.403C1701.82 478.56 1715.97 470.674 1715.97 456.757C1715.97 451.19 1713.18 444.924 1707.61 437.966L1626.22 338.487L1585.86 378.82V444.237C1585.86 456.752 1588.99 465.445 1595.26 470.32C1601.52 475.195 1613.92 478.56 1632.47 480.403V497.799H1477.32V480.403Z" fill="black"/>
<path d="M1188.67 562.85C1194.06 562.85 1198.42 564.199 1201.76 566.891C1205.1 569.589 1206.78 573.199 1206.78 577.725C1206.78 581.173 1205.7 584.136 1203.55 586.62C1201.39 589.094 1198.37 590.329 1194.49 590.329C1192.33 590.329 1190.55 590.011 1189.15 589.37C1187.75 588.719 1186.08 587.641 1184.15 586.141C1182.64 584.839 1181.28 583.865 1180.09 583.225C1178.91 582.574 1177.45 582.245 1175.74 582.245C1171 582.245 1166.68 586.027 1162.8 593.579C1171.64 603.495 1176.07 615.995 1176.07 631.079C1176.07 641.86 1173.59 651.558 1168.63 660.183C1163.67 668.808 1156.55 675.6 1147.28 680.558C1138.01 685.516 1127.02 687.995 1114.3 687.995C1107.62 687.995 1100.82 687.136 1093.92 685.412C1088.74 684.12 1084.64 683.475 1081.63 683.475C1076.03 683.475 1071.78 684.553 1068.86 686.704C1065.95 688.86 1064.51 691.553 1064.51 694.787C1064.51 698.454 1066.33 701.152 1069.99 702.87C1073.65 704.594 1079.8 705.886 1088.42 706.745C1097.05 707.61 1110.2 708.365 1127.88 709.016C1152.02 709.881 1168.93 713.219 1178.63 719.037C1188.34 724.855 1193.19 733.798 1193.19 745.87C1193.19 759.454 1186.72 770.016 1173.8 777.558C1160.87 785.11 1143.3 788.891 1121.09 788.891C1097.8 788.891 1079.57 786.245 1066.42 780.954C1053.28 775.673 1046.71 766.787 1046.71 754.287C1046.71 743.079 1052.64 734.35 1064.51 728.1C1058.24 725.501 1053.76 722.053 1051.07 717.745C1048.37 713.443 1047.03 708.157 1047.03 701.891C1047.03 693.923 1049.34 687.454 1053.99 682.495C1058.62 677.537 1064.39 674.631 1071.28 673.766C1065.03 668.6 1060.28 662.35 1057.05 655.016C1053.82 647.683 1052.21 639.704 1052.21 631.079C1052.21 614.261 1057.76 600.516 1068.86 589.85C1079.95 579.183 1095.1 573.85 1114.3 573.85C1130.03 573.85 1143.18 577.62 1153.76 585.162C1158.28 578.485 1163.67 573.094 1169.92 568.995C1176.17 564.902 1182.42 562.85 1188.67 562.85ZM1114.3 675.391C1126.16 675.391 1134.51 671.511 1139.36 663.745C1144.2 655.985 1146.63 645.094 1146.63 631.079C1146.63 617.068 1144.2 606.131 1139.36 598.266C1134.51 590.391 1126.16 586.454 1114.3 586.454C1102.22 586.454 1093.76 590.391 1088.9 598.266C1084.05 606.131 1081.63 617.068 1081.63 631.079C1081.63 645.094 1084.05 655.985 1088.9 663.745C1093.76 671.511 1102.22 675.391 1114.3 675.391ZM1172.51 752.995C1172.51 748.464 1171.1 745.173 1168.3 743.12C1165.49 741.079 1160.8 739.673 1154.21 738.912C1147.64 738.162 1137.46 737.568 1123.67 737.141C1106.85 736.501 1092.84 735.209 1081.63 733.266C1071.71 736.709 1066.76 742.745 1066.76 751.37C1066.76 759.563 1071.5 765.766 1080.99 769.975C1090.47 774.183 1103.84 776.287 1121.09 776.287C1137.03 776.287 1149.59 774.068 1158.76 769.641C1167.92 765.225 1172.51 759.673 1172.51 752.995Z" fill="#55996F"/>
<path d="M1311.2 610.058C1307.96 610.058 1305.31 609.412 1303.26 608.12C1301.22 606.829 1298.8 604.782 1296.01 601.975C1294.06 599.824 1292.22 598.157 1290.49 596.975C1288.76 595.782 1286.83 595.183 1284.67 595.183C1280.58 595.183 1276.15 596.589 1271.4 599.391C1266.66 602.199 1262.58 606.298 1259.13 611.683V699.641C1259.13 705.464 1260.58 709.506 1263.49 711.766C1266.4 714.032 1272.17 715.594 1280.8 716.454V724.537H1208.7V716.454C1217.53 715.594 1223.39 714.032 1226.3 711.766C1229.22 709.506 1230.67 705.464 1230.67 699.641V616.204C1230.67 612.329 1229.91 609.589 1228.4 607.975C1226.9 606.35 1224.32 605.537 1220.65 605.537H1208.7V599.058L1249.11 573.85H1259.13V595.183C1264.74 588.506 1271.42 583.282 1279.17 579.516C1286.93 575.74 1294.59 573.85 1302.13 573.85C1310.55 573.85 1316.8 575.74 1320.9 579.516C1325 583.282 1327.05 587.969 1327.05 593.579C1327.05 598.745 1325.59 602.787 1322.67 605.704C1319.77 608.61 1315.95 610.058 1311.2 610.058Z" fill="#55996F"/>
<path d="M1412.71 573.85C1427.59 573.85 1440.84 577.245 1452.48 584.037C1464.12 590.829 1473.12 600.1 1479.48 611.85C1485.84 623.6 1489.02 636.803 1489.02 651.454C1489.02 666.12 1485.84 679.386 1479.48 691.245C1473.12 703.094 1464.12 712.412 1452.48 719.204C1440.84 725.995 1427.59 729.391 1412.71 729.391C1397.84 729.391 1384.63 725.995 1373.09 719.204C1361.55 712.412 1352.61 703.094 1346.25 691.245C1339.89 679.386 1336.71 666.12 1336.71 651.454C1336.71 636.803 1339.89 623.6 1346.25 611.85C1352.61 600.1 1361.55 590.829 1373.09 584.037C1384.63 577.245 1397.84 573.85 1412.71 573.85ZM1412.71 716.766C1428.24 716.766 1439.66 710.902 1446.98 699.162C1454.31 687.412 1457.98 671.511 1457.98 651.454C1457.98 631.402 1454.31 615.553 1446.98 603.912C1439.66 592.277 1428.24 586.454 1412.71 586.454C1397.18 586.454 1385.8 592.277 1378.59 603.912C1371.36 615.553 1367.75 631.402 1367.75 651.454C1367.75 671.511 1371.36 687.412 1378.59 699.162C1385.8 710.902 1397.18 716.766 1412.71 716.766Z" fill="#55996F"/>
<path d="M1597.32 599.058L1637.74 573.85H1647.76V699.641C1647.76 705.464 1649.21 709.506 1652.11 711.766C1655.03 714.032 1660.8 715.594 1669.43 716.454V724.537C1652.62 724.537 1635.91 726.152 1619.3 729.391V713.537C1612.19 717.86 1604.1 721.579 1595.05 724.704C1585.99 727.829 1577.37 729.391 1569.18 729.391C1556.9 729.391 1546.18 726.162 1537.01 719.704C1527.84 713.235 1523.26 701.907 1523.26 685.725V616.204C1523.26 612.329 1522.5 609.589 1520.99 607.975C1519.49 606.35 1516.91 605.537 1513.24 605.537H1501.59V599.058L1542.03 573.85H1551.72V685.725C1551.72 695.006 1553.98 701.85 1558.51 706.266C1563.04 710.683 1569.29 712.891 1577.28 712.891C1590.64 712.891 1604.65 708.261 1619.3 698.995V616.204C1619.3 612.329 1618.49 609.589 1616.89 607.975C1615.27 606.35 1612.64 605.537 1608.97 605.537H1597.32V599.058Z" fill="#55996F"/>
<path d="M1680.39 775.954C1689.23 775.089 1695.09 773.579 1698 771.412C1700.91 769.256 1702.37 765.271 1702.37 759.454V616.204C1702.37 612.329 1701.61 609.589 1700.1 607.975C1698.6 606.35 1696.02 605.537 1692.35 605.537H1679.41V599.058L1720.81 573.85H1730.83V590.329C1741.4 579.344 1755.74 573.85 1773.85 573.85C1787.86 573.85 1799.93 577.245 1810.06 584.037C1820.19 590.829 1827.9 600.1 1833.18 611.85C1838.46 623.6 1841.1 636.803 1841.1 651.454C1841.1 666.329 1838.4 679.641 1833.02 691.391C1827.63 703.141 1819.76 712.412 1809.41 719.204C1799.06 725.995 1786.56 729.391 1771.91 729.391C1754.87 729.391 1741.17 724.433 1730.83 714.516V759.454C1730.83 765.063 1732.28 769.001 1735.18 771.266C1738.1 773.527 1743.87 775.089 1752.5 775.954V784.037H1680.39V775.954ZM1730.83 697.704C1739.45 709.553 1751.42 715.475 1766.73 715.475C1795.61 715.475 1810.06 694.136 1810.06 651.454C1810.06 608.985 1795.61 587.745 1766.73 587.745C1751.42 587.745 1739.45 593.678 1730.83 605.537V697.704Z" fill="#55996F"/>
<path d="M1188.67 562.85C1194.06 562.85 1198.42 564.199 1201.76 566.891C1205.1 569.589 1206.78 573.199 1206.78 577.725C1206.78 581.173 1205.7 584.136 1203.55 586.62C1201.39 589.094 1198.37 590.329 1194.49 590.329C1192.33 590.329 1190.55 590.011 1189.15 589.37C1187.75 588.719 1186.08 587.641 1184.15 586.141C1182.64 584.839 1181.28 583.865 1180.09 583.225C1178.91 582.574 1177.45 582.245 1175.74 582.245C1171 582.245 1166.68 586.027 1162.8 593.579C1171.64 603.495 1176.07 615.995 1176.07 631.079C1176.07 641.86 1173.59 651.558 1168.63 660.183C1163.67 668.808 1156.55 675.6 1147.28 680.558C1138.01 685.516 1127.02 687.995 1114.3 687.995C1107.62 687.995 1100.82 687.136 1093.92 685.412C1088.74 684.12 1084.64 683.475 1081.63 683.475C1076.03 683.475 1071.78 684.553 1068.86 686.704C1065.95 688.86 1064.51 691.553 1064.51 694.787C1064.51 698.454 1066.33 701.152 1069.99 702.87C1073.65 704.594 1079.8 705.886 1088.42 706.745C1097.05 707.61 1110.2 708.365 1127.88 709.016C1152.02 709.881 1168.93 713.219 1178.63 719.037C1188.34 724.855 1193.19 733.798 1193.19 745.87C1193.19 759.454 1186.72 770.016 1173.8 777.558C1160.87 785.11 1143.3 788.891 1121.09 788.891C1097.8 788.891 1079.57 786.245 1066.42 780.954C1053.28 775.673 1046.71 766.787 1046.71 754.287C1046.71 743.079 1052.64 734.35 1064.51 728.1C1058.24 725.501 1053.76 722.053 1051.07 717.745C1048.37 713.443 1047.03 708.157 1047.03 701.891C1047.03 693.923 1049.34 687.454 1053.99 682.495C1058.62 677.537 1064.39 674.631 1071.28 673.766C1065.03 668.6 1060.28 662.35 1057.05 655.016C1053.82 647.683 1052.21 639.704 1052.21 631.079C1052.21 614.261 1057.76 600.516 1068.86 589.85C1079.95 579.183 1095.1 573.85 1114.3 573.85C1130.03 573.85 1143.18 577.62 1153.76 585.162C1158.28 578.485 1163.67 573.094 1169.92 568.995C1176.17 564.902 1182.42 562.85 1188.67 562.85ZM1114.3 675.391C1126.16 675.391 1134.51 671.511 1139.36 663.745C1144.2 655.985 1146.63 645.094 1146.63 631.079C1146.63 617.068 1144.2 606.131 1139.36 598.266C1134.51 590.391 1126.16 586.454 1114.3 586.454C1102.22 586.454 1093.76 590.391 1088.9 598.266C1084.05 606.131 1081.63 617.068 1081.63 631.079C1081.63 645.094 1084.05 655.985 1088.9 663.745C1093.76 671.511 1102.22 675.391 1114.3 675.391ZM1172.51 752.995C1172.51 748.464 1171.1 745.173 1168.3 743.12C1165.49 741.079 1160.8 739.673 1154.21 738.912C1147.64 738.162 1137.46 737.568 1123.67 737.141C1106.85 736.501 1092.84 735.209 1081.63 733.266C1071.71 736.709 1066.76 742.745 1066.76 751.37C1066.76 759.563 1071.5 765.766 1080.99 769.975C1090.47 774.183 1103.84 776.287 1121.09 776.287C1137.03 776.287 1149.59 774.068 1158.76 769.641C1167.92 765.225 1172.51 759.673 1172.51 752.995Z" fill="black"/>
<path d="M1311.2 610.058C1307.96 610.058 1305.31 609.412 1303.26 608.12C1301.22 606.829 1298.8 604.782 1296.01 601.975C1294.06 599.824 1292.22 598.157 1290.49 596.975C1288.76 595.782 1286.83 595.183 1284.67 595.183C1280.58 595.183 1276.15 596.589 1271.4 599.391C1266.66 602.199 1262.58 606.298 1259.13 611.683V699.641C1259.13 705.464 1260.58 709.506 1263.49 711.766C1266.4 714.032 1272.17 715.594 1280.8 716.454V724.537H1208.7V716.454C1217.53 715.594 1223.39 714.032 1226.3 711.766C1229.22 709.506 1230.67 705.464 1230.67 699.641V616.204C1230.67 612.329 1229.91 609.589 1228.4 607.975C1226.9 606.35 1224.32 605.537 1220.65 605.537H1208.7V599.058L1249.11 573.85H1259.13V595.183C1264.74 588.506 1271.42 583.282 1279.17 579.516C1286.93 575.74 1294.59 573.85 1302.13 573.85C1310.55 573.85 1316.8 575.74 1320.9 579.516C1325 583.282 1327.05 587.969 1327.05 593.579C1327.05 598.745 1325.59 602.787 1322.67 605.704C1319.77 608.61 1315.95 610.058 1311.2 610.058Z" fill="black"/>
<path d="M1412.71 573.85C1427.59 573.85 1440.84 577.245 1452.48 584.037C1464.12 590.829 1473.12 600.1 1479.48 611.85C1485.84 623.6 1489.02 636.803 1489.02 651.454C1489.02 666.12 1485.84 679.386 1479.48 691.245C1473.12 703.094 1464.12 712.412 1452.48 719.204C1440.84 725.995 1427.59 729.391 1412.71 729.391C1397.84 729.391 1384.63 725.995 1373.09 719.204C1361.55 712.412 1352.61 703.094 1346.25 691.245C1339.89 679.386 1336.71 666.12 1336.71 651.454C1336.71 636.803 1339.89 623.6 1346.25 611.85C1352.61 600.1 1361.55 590.829 1373.09 584.037C1384.63 577.245 1397.84 573.85 1412.71 573.85ZM1412.71 716.766C1428.24 716.766 1439.66 710.902 1446.98 699.162C1454.31 687.412 1457.98 671.511 1457.98 651.454C1457.98 631.402 1454.31 615.553 1446.98 603.912C1439.66 592.277 1428.24 586.454 1412.71 586.454C1397.18 586.454 1385.8 592.277 1378.59 603.912C1371.36 615.553 1367.75 631.402 1367.75 651.454C1367.75 671.511 1371.36 687.412 1378.59 699.162C1385.8 710.902 1397.18 716.766 1412.71 716.766Z" fill="black"/>
<path d="M1597.32 599.058L1637.74 573.85H1647.76V699.641C1647.76 705.464 1649.21 709.506 1652.11 711.766C1655.03 714.032 1660.8 715.594 1669.43 716.454V724.537C1652.62 724.537 1635.91 726.152 1619.3 729.391V713.537C1612.19 717.86 1604.1 721.579 1595.05 724.704C1585.99 727.829 1577.37 729.391 1569.18 729.391C1556.9 729.391 1546.18 726.162 1537.01 719.704C1527.84 713.235 1523.26 701.907 1523.26 685.725V616.204C1523.26 612.329 1522.5 609.589 1520.99 607.975C1519.49 606.35 1516.91 605.537 1513.24 605.537H1501.59V599.058L1542.03 573.85H1551.72V685.725C1551.72 695.006 1553.98 701.85 1558.51 706.266C1563.04 710.683 1569.29 712.891 1577.28 712.891C1590.64 712.891 1604.65 708.261 1619.3 698.995V616.204C1619.3 612.329 1618.49 609.589 1616.89 607.975C1615.27 606.35 1612.64 605.537 1608.97 605.537H1597.32V599.058Z" fill="black"/>
<path d="M1680.39 775.954C1689.23 775.089 1695.09 773.579 1698 771.412C1700.91 769.256 1702.37 765.271 1702.37 759.454V616.204C1702.37 612.329 1701.61 609.589 1700.1 607.975C1698.6 606.35 1696.02 605.537 1692.35 605.537H1679.41V599.058L1720.81 573.85H1730.83V590.329C1741.4 579.344 1755.74 573.85 1773.85 573.85C1787.86 573.85 1799.93 577.245 1810.06 584.037C1820.19 590.829 1827.9 600.1 1833.18 611.85C1838.46 623.6 1841.1 636.803 1841.1 651.454C1841.1 666.329 1838.4 679.641 1833.02 691.391C1827.63 703.141 1819.76 712.412 1809.41 719.204C1799.06 725.995 1786.56 729.391 1771.91 729.391C1754.87 729.391 1741.17 724.433 1730.83 714.516V759.454C1730.83 765.063 1732.28 769.001 1735.18 771.266C1738.1 773.527 1743.87 775.089 1752.5 775.954V784.037H1680.39V775.954ZM1730.83 697.704C1739.45 709.553 1751.42 715.475 1766.73 715.475C1795.61 715.475 1810.06 694.136 1810.06 651.454C1810.06 608.985 1795.61 587.745 1766.73 587.745C1751.42 587.745 1739.45 593.678 1730.83 605.537V697.704Z" fill="black"/>
</g>
<defs>
<clipPath id="clip0_932_61">
<rect width="1847" height="789" fill="white"/>
</clipPath>
</defs>
</svg>
