<svg width="105" height="70" viewBox="0 0 105 70" fill="none" xmlns="http://www.w3.org/2000/svg">
<path d="M78 15C75.4359 18.2531 70.8062 19.1122 67.3362 16.3772C63.8662 13.6422 65.4363 9.75345 68.0004 6.50034C70.5645 3.24722 74.7892 1.75231 78.2592 4.48733C81.7292 7.22235 80.5641 11.7469 78 15Z" fill="#469AC7"/>
<path d="M59.5 27L76 25L89.5 24.5L102.264 24.9728C102.675 24.988 103 25.3252 103 25.7361C103 26.158 102.658 26.5 102.236 26.5H89L81 27L74.5 27.5L63.5 29L56 31L50.9047 32.3896C50.6366 32.4627 50.3822 32.5786 50.151 32.7327L49.2901 33.3066C49.1088 33.4274 49 33.6308 49 33.8486C49 34.2084 49.2916 34.5 49.6514 34.5H50.5L77 33.5H78.8486C79.2734 33.5 79.6886 33.6257 80.042 33.8613L80.4226 34.1151C80.7833 34.3556 81 34.7604 81 35.1939C81 35.3952 80.9531 35.5937 80.8631 35.7738L80.7647 35.9706C80.5912 36.3175 80.3302 36.6132 80.0075 36.8283L79.7481 37.0012C79.2578 37.3281 78.691 37.5221 78.1031 37.5641L72 38L65 39L58.3923 40.3215C57.7983 40.4403 57.2141 40.604 56.6448 40.811L52 42.5L44 46L34.5 50.5L25 56L18 60.5L11 65L6.48391 68.6129C6.16506 68.868 5.79493 69.0513 5.39879 69.1503C4.51969 69.3701 3.58848 69.1571 2.89235 68.577L1.99758 67.8313C1.34284 67.2857 0.834256 66.5856 0.517726 65.7943L0.0982779 64.7457C0.0333558 64.5834 0 64.4102 0 64.2354C0 63.776 0.229608 63.3469 0.611872 63.0921L4.5 60.5L13.5 55.5L23.5 50L35.5 44L44 40.5L48.9253 39.0224C48.9748 39.0076 49.0219 38.9854 49.0649 38.9567L49.2519 38.8321C49.6258 38.5828 49.4494 38 49 38H45.1376C44.3895 38 43.6516 37.8258 42.9825 37.4912L42.022 37.011C41.3733 36.6867 40.8988 36.0951 40.7229 35.3915C40.5791 34.8162 40.6458 34.2085 40.911 33.678L41.1104 33.2791C41.3666 32.7667 41.7386 32.3211 42.1969 31.9774L42.7818 31.5386C43.2585 31.1811 43.7802 30.8879 44.3335 30.6666L45.0965 30.3614C45.6978 30.1209 46.3177 29.9294 46.95 29.7889L59.5 27Z" fill="#B5E33A"/>
<path d="M35.1882 26.2472L35.1565 26.3742C35.0537 26.7851 35.0537 27.2149 35.1565 27.6258L35.2568 28.0271C35.4083 28.6331 35.8588 29.1196 36.4513 29.3171C36.8084 29.4361 37.1935 29.442 37.5539 29.3338L42 28L53 25L66 23L75 22.5L88 23L98 23.5L104.456 23.9611C104.75 23.9821 105 23.7493 105 23.4546C105 23.1958 104.805 22.9784 104.548 22.9498L96 22L82 21L75 20.5H68L62 21L56 21.5L51 22L45.5 22.5L38.9624 23.3717C38.3275 23.4563 37.7167 23.67 37.1675 23.9995L36.6024 24.3386C35.8965 24.7621 35.3878 25.4486 35.1882 26.2472Z" fill="#469AC7"/>
</svg>
